<?xml version="1.0" encoding="UTF-8" standalone="no"?>
<svg
   xmlns:dc="http://purl.org/dc/elements/1.1/"
   xmlns:cc="http://creativecommons.org/ns#"
   xmlns:rdf="http://www.w3.org/1999/02/22-rdf-syntax-ns#"
   xmlns:svg="http://www.w3.org/2000/svg"
   xmlns="http://www.w3.org/2000/svg"
   xmlns:sodipodi="http://sodipodi.sourceforge.net/DTD/sodipodi-0.dtd"
   xmlns:inkscape="http://www.inkscape.org/namespaces/inkscape"
   id="f885adbf-893a-4cbc-9f2f-51541a368feb"
   data-name="Layer 1"
   width="1090.76"
   height="795.07"
   viewBox="0 0 1090.76 795.07"
   version="1.1"
   sodipodi:docname="dashboard.svg"
   inkscape:version="0.92.3 (2405546, 2018-03-11)">
  <metadata
     id="metadata292">
    <rdf:RDF>
      <cc:Work
         rdf:about="">
        <dc:format>image/svg+xml</dc:format>
        <dc:type
           rdf:resource="http://purl.org/dc/dcmitype/StillImage" />
      </cc:Work>
    </rdf:RDF>
  </metadata>
  <sodipodi:namedview
     pagecolor="#ffffff"
     bordercolor="#666666"
     borderopacity="1"
     objecttolerance="10"
     gridtolerance="10"
     guidetolerance="10"
     inkscape:pageopacity="0"
     inkscape:pageshadow="2"
     inkscape:window-width="1920"
     inkscape:window-height="1017"
     id="namedview290"
     showgrid="false"
     inkscape:zoom="0.59365841"
     inkscape:cx="517.5193"
     inkscape:cy="407.05428"
     inkscape:window-x="0"
     inkscape:window-y="30"
     inkscape:window-maximized="1"
     inkscape:current-layer="g1436" />
  <defs
     id="defs9">
    <linearGradient
       id="b2e9a30e-d699-40a8-8c6a-b63a5f54a941"
       x1="946.56"
       y1="846.78"
       x2="946.56"
       y2="635.52"
       gradientUnits="userSpaceOnUse">
      <stop
         offset="0"
         stop-color="gray"
         stop-opacity="0.25"
         id="stop2" />
      <stop
         offset="0.54"
         stop-color="gray"
         stop-opacity="0.12"
         id="stop4" />
      <stop
         offset="1"
         stop-color="gray"
         stop-opacity="0.1"
         id="stop6" />
    </linearGradient>
    <linearGradient
       gradientUnits="userSpaceOnUse"
       y2="175.75"
       x2="790.68"
       y1="664.41"
       x1="790.68"
       id="b6a338e9-6675-4055-aeec-b883651a73ae">
      <stop
         id="stop1718"
         stop-opacity="0.25"
         stop-color="gray"
         offset="0" />
      <stop
         id="stop1720"
         stop-opacity="0.12"
         stop-color="gray"
         offset="0.54" />
      <stop
         id="stop1722"
         stop-opacity="0.1"
         stop-color="gray"
         offset="1" />
    </linearGradient>
  </defs>
  <title
     id="title11">revenue</title>
  <path
     d="M1145.38,293.87s-15.23-6.19-63.68,16-54.5,19.4-67.05,16-19.53-4.21-33-22.77c0,0-9.48-51.4-18.66-59.37s-48.18,4.54-48.18,4.54S868.06,259,859.15,196.54c0,0,6.32-47.11-2.29-61.56,0,0,17.38,7.49,46.06-4.61s51.65,13,51.65,13,7.23,18.73,6.47,29.89,3.83,15.36,17.51,10c0,0,6.72-9.56-2.8-25.36s-16.31-27.57-13.65-39.85,10.29-29.28,34.83-37.79,57.87-10.15,73.87-16.81,19.87-11,19.87-11-9.84,9.86,13.35,51.68,8.41,60,8.41,60-12.34,29.4-66.81,27c0,0-52.49,1.92-23.87,24.18,0,0,18.32-3.73,45.72-12.44s47.18,27.23,52.09,52.24S1145.38,293.87,1145.38,293.87Z"
     transform="translate(-54.62 -52.46)"
     fill="#3273dc"
     id="path13" />
  <path
     d="M1074.83,84.17l.28-.07c2.11,8-21.35,40-41.4,65.53l-.24-.18C1061.76,113.49,1076.45,90.31,1074.83,84.17Z"
     transform="translate(-54.62 -52.46)"
     fill="#444053"
     id="path15" />
  <path
     d="M1033.89,148.92l.12.33c-16,20.36-36.17,44.66-52.29,62.66-1.53,1.72-3.06,3.52-4.53,5.36l-.46-.37c1.48-1.85,3-3.66,4.55-5.38C997.4,193.53,1017.88,169.28,1033.89,148.92Z"
     transform="translate(-54.62 -52.46)"
     fill="#444053"
     id="path17" />
  <path
     d="M977.12,216.41l.32.55c-29.34,36.63-31.28,93.51-31.35,94l-6.19-7.14C940,303.32,947.57,253.3,977.12,216.41Z"
     transform="translate(-54.62 -52.46)"
     fill="#444053"
     id="path19" />
  <path
     d="M1111.35,274s-34.6-18-61.56-11.53-87.67-22.81-87.67-22.81-25.77-10.47-31-22.41c0,0-17.69-18.69-18.7-28.38s-18.22-34-29.45-34.93"
     transform="translate(-54.62 -52.46)"
     fill="none"
     stroke="#444053"
     stroke-miterlimit="10"
     id="path21" />
  <path
     d="M1106.34,291.32s-17.42-11.74-15.4-25.42"
     transform="translate(-54.62 -52.46)"
     fill="none"
     stroke="#444053"
     stroke-miterlimit="10"
     id="path23" />
  <path
     d="M1079.61,306.48s-24.91-9.05-27.42-44.52"
     transform="translate(-54.62 -52.46)"
     fill="none"
     stroke="#444053"
     stroke-miterlimit="10"
     id="path25" />
  <path
     d="M1039.4,315.66s-23.81-19.76-15.91-54.28"
     transform="translate(-54.62 -52.46)"
     fill="none"
     stroke="#444053"
     stroke-miterlimit="10"
     id="path27" />
  <path
     d="M991.09,306s-15.87-33.25-1.75-54.89"
     transform="translate(-54.62 -52.46)"
     fill="none"
     stroke="#444053"
     stroke-miterlimit="10"
     id="path29" />
  <path
     d="M1111.75,252.08s-18,5.72-14.15,15.2"
     transform="translate(-54.62 -52.46)"
     fill="none"
     stroke="#444053"
     stroke-miterlimit="10"
     id="path31" />
  <path
     d="M1090,219.37s-24.11,7.65-24.68,41.76"
     transform="translate(-54.62 -52.46)"
     fill="none"
     stroke="#444053"
     stroke-miterlimit="10"
     id="path33" />
  <path
     d="M1056.38,211.5s-21.94,27.09-20.34,51.71"
     transform="translate(-54.62 -52.46)"
     fill="none"
     stroke="#444053"
     stroke-miterlimit="10"
     id="path35" />
  <path
     d="M1018,222.12s-21.8,20.84-19,32.43"
     transform="translate(-54.62 -52.46)"
     fill="none"
     stroke="#444053"
     stroke-miterlimit="10"
     id="path37" />
  <path
     d="M1004.8,214.76s-20.44,3.67-23.3-3"
     transform="translate(-54.62 -52.46)"
     fill="none"
     stroke="#444053"
     stroke-miterlimit="10"
     id="path39" />
  <path
     d="M978.24,190.08s10.33,13.68,13,10.62"
     transform="translate(-54.62 -52.46)"
     fill="none"
     stroke="#444053"
     stroke-miterlimit="10"
     id="path41" />
  <path
     d="M1080.62,181.43s-51.53,3.74-63.19-11.79"
     transform="translate(-54.62 -52.46)"
     fill="none"
     stroke="#444053"
     stroke-miterlimit="10"
     id="path43" />
  <path
     d="M967.4,121.16s24.18,51.9,41.73,58.51"
     transform="translate(-54.62 -52.46)"
     fill="none"
     stroke="#444053"
     stroke-miterlimit="10"
     id="path45" />
  <path
     d="M992.76,96.44s14.85,47.74,33.25,62.64"
     transform="translate(-54.62 -52.46)"
     fill="none"
     stroke="#444053"
     stroke-miterlimit="10"
     id="path47" />
  <path
     d="M1102.3,142s-39.18,16.82-62.71-.19"
     transform="translate(-54.62 -52.46)"
     fill="none"
     stroke="#444053"
     stroke-miterlimit="10"
     stroke-width="0.75"
     id="path49" />
  <path
     d="M1027.67,86.26s8.95,35.1,21,43.57"
     transform="translate(-54.62 -52.46)"
     fill="none"
     stroke="#444053"
     stroke-miterlimit="10"
     stroke-width="0.75"
     id="path51" />
  <path
     d="M1096.39,102.73s-22,8.33-30.25,2"
     transform="translate(-54.62 -52.46)"
     fill="none"
     stroke="#444053"
     stroke-miterlimit="10"
     stroke-width="0.75"
     id="path53" />
  <path
     d="M959.38,201.55s-.06,30.59-8.34,32.76"
     transform="translate(-54.62 -52.46)"
     fill="none"
     stroke="#444053"
     stroke-miterlimit="10"
     id="path55" />
  <path
     d="M891.3,241.18S924.37,244,939.62,227"
     transform="translate(-54.62 -52.46)"
     fill="none"
     stroke="#444053"
     stroke-miterlimit="10"
     id="path57" />
  <path
     d="M950.84,165.41s-8,31-30.08,39.38"
     transform="translate(-54.62 -52.46)"
     fill="none"
     stroke="#444053"
     stroke-miterlimit="10"
     id="path59" />
  <path
     d="M871.46,208.5s23.41,8.14,43.54-12.59"
     transform="translate(-54.62 -52.46)"
     fill="none"
     stroke="#444053"
     stroke-miterlimit="10"
     id="path61" />
  <path
     d="M924.81,138.74s-2.21,26.35-16.53,38.68"
     transform="translate(-54.62 -52.46)"
     fill="none"
     stroke="#444053"
     stroke-miterlimit="10"
     id="path63" />
  <path
     d="M872.35,168.35s19.43.13,24-6.2"
     transform="translate(-54.62 -52.46)"
     fill="none"
     stroke="#444053"
     stroke-miterlimit="10"
     id="path65" />
  <path
     d="M242.53,795.07s13.31-8.78,26.5-2.53c0,0-4.06,7.82-20.76,7.08Z"
     transform="translate(-54.62 -52.46)"
     fill="#3273dc"
     id="path67" />
  <path
     d="M240.9,795.54S236.85,811,247,821.45c0,0,6.11-6.36.05-21.93Z"
     transform="translate(-54.62 -52.46)"
     fill="#3273dc"
     id="path69" />
  <path
     d="M224.3,780.74s1-13.12,30.6-8.77c0,0,.14,8.46-10.26,12.47S229.49,785.07,224.3,780.74Z"
     transform="translate(-54.62 -52.46)"
     fill="#3273dc"
     id="path71" />
  <path
     d="M222.48,780.65s-12.52,4-1.36,31.79c0,0,8.26-1.84,9.72-12.89S227.91,784.67,222.48,780.65Z"
     transform="translate(-54.62 -52.46)"
     fill="#3273dc"
     id="path73" />
  <path
     d="M205.71,762s-1.69-21.58,28.57-19.36c0,0,2.15,19.53-23.22,24.55Z"
     transform="translate(-54.62 -52.46)"
     fill="#3273dc"
     id="path75" />
  <path
     d="M185.72,737.68s4.14-24.45,34.39-17.16c0,0,.12,21.14-29.46,23Z"
     transform="translate(-54.62 -52.46)"
     fill="#3273dc"
     id="path77" />
  <path
     d="M171.1,712.5s7-23.88,36.92-16.69c0,0-7.13,21.42-34.93,21.09Z"
     transform="translate(-54.62 -52.46)"
     fill="#3273dc"
     id="path79" />
  <path
     d="M157.22,687.9s6.79-24.72,35.72-17.3c0,0-9.66,23.49-33.82,21.51Z"
     transform="translate(-54.62 -52.46)"
     fill="#3273dc"
     id="path81" />
  <path
     d="M148.27,664.53s5.22-30.23,32.2-23.54c0,0-7.84,27.5-30.21,27.94Z"
     transform="translate(-54.62 -52.46)"
     fill="#3273dc"
     id="path83" />
  <path
     d="M139.88,636.3s6.27-30.47,33.54-21.61c0,0-10.71,28.8-31.64,25.82Z"
     transform="translate(-54.62 -52.46)"
     fill="#3273dc"
     id="path85" />
  <path
     d="M134.69,610s9.94-30.48,31.05-29.65c0,0-10.17,32.19-29.29,35.76Z"
     transform="translate(-54.62 -52.46)"
     fill="#3273dc"
     id="path87" />
  <path
     d="M131.39,584.39s10.82-36.69,28-33.85c0,0-7.49,28-27.39,39.57Z"
     transform="translate(-54.62 -52.46)"
     fill="#3273dc"
     id="path89" />
  <path
     d="M129.51,553.77S139.66,523.2,156.62,522c0,0-6.91,30.08-26.73,39.73Z"
     transform="translate(-54.62 -52.46)"
     fill="#3273dc"
     id="path91" />
  <path
     d="M127.46,525.26s12.66-30.61,23.86-31.3c0,0-5.49,30.14-22.74,36.32Z"
     transform="translate(-54.62 -52.46)"
     fill="#3273dc"
     id="path93" />
  <path
     d="M126.05,498.71s7.78-33.24,19-36c0,0-1.53,27.18-17.85,38.48Z"
     transform="translate(-54.62 -52.46)"
     fill="#3273dc"
     id="path95" />
  <path
     d="M121.85,464s8.18-26.49,17.24-30.53c0,0-1.79,31.23-15.14,37Z"
     transform="translate(-54.62 -52.46)"
     fill="#3273dc"
     id="path97" />
  <path
     d="M118.34,441.14l-1.65-46.71s16.92,35.26,2.9,54.95Z"
     transform="translate(-54.62 -52.46)"
     fill="#3273dc"
     id="path99" />
  <path
     d="M105.26,394.72s-12.2-34.11-15.13-36c0,0,23.93,22.13,21.59,50.6Z"
     transform="translate(-54.62 -52.46)"
     fill="#3273dc"
     id="path101" />
  <path
     d="M204.89,761.89s-21.46-2.81-20.82,27.52c0,0,19.4,3.16,25.73-21.92Z"
     transform="translate(-54.62 -52.46)"
     fill="#3273dc"
     id="path103" />
  <path
     d="M184.7,736.87s-24.8-.09-22.78,31c0,0,20.81,3.72,27.68-25.1Z"
     transform="translate(-54.62 -52.46)"
     fill="#3273dc"
     id="path105" />
  <path
     d="M170.86,714.51S148.35,704,133.94,731.2c0,0,20.8,8.79,38.91-12.29Z"
     transform="translate(-54.62 -52.46)"
     fill="#3273dc"
     id="path107" />
  <path
     d="M156.72,688.13s-23.05-11.24-36.59,15.39c0,0,24,8.26,38.49-11.18Z"
     transform="translate(-54.62 -52.46)"
     fill="#3273dc"
     id="path109" />
  <path
     d="M148.56,665.19s-22.18-21.2-39.89.24c0,0,22.67,17.44,40.91,4.48Z"
     transform="translate(-54.62 -52.46)"
     fill="#3273dc"
     id="path111" />
  <path
     d="M141.14,635.58s-22.32-21.68-39.89,1c0,0,25.06,17.78,40.68,3.55Z"
     transform="translate(-54.62 -52.46)"
     fill="#3273dc"
     id="path113" />
  <path
     d="M137,609.16s-17.19-27-37.44-21c0,0,17.84,28.66,37.25,27.38Z"
     transform="translate(-54.62 -52.46)"
     fill="#3273dc"
     id="path115" />
  <path
     d="M131.9,584.22s-17.35-34.09-33.72-28.17c0,0,12.49,26.2,34.16,33.9Z"
     transform="translate(-54.62 -52.46)"
     fill="#3273dc"
     id="path117" />
  <path
     d="M130.7,552s-17.81-26.84-34.5-23.56c0,0,14.56,27.21,36.23,31.32Z"
     transform="translate(-54.62 -52.46)"
     fill="#3273dc"
     id="path119" />
  <path
     d="M129.34,524.66s-13.8-30.11-25-30.37c0,0,6.63,29.9,24.1,35.43Z"
     transform="translate(-54.62 -52.46)"
     fill="#3273dc"
     id="path121" />
  <path
     d="M126.61,498.05s-15.35-30.49-26.88-30.55c0,0,7.86,26.07,26.36,33.24Z"
     transform="translate(-54.62 -52.46)"
     fill="#3273dc"
     id="path123" />
  <path
     d="M124.3,465.84s-11.48-25.24-21-28.1c0,0,5.74,30.76,19.72,34.79Z"
     transform="translate(-54.62 -52.46)"
     fill="#3273dc"
     id="path125" />
  <path
     d="M117,440.26,91.33,401.19s6.57,38.54,29.39,46.52Z"
     transform="translate(-54.62 -52.46)"
     fill="#3273dc"
     id="path127" />
  <path
     d="M99.37,397.87S69.56,377.29,68.48,374c0,0,15.21,28.83,43.32,33.91Z"
     transform="translate(-54.62 -52.46)"
     fill="#3273dc"
     id="path129" />
  <path
     d="M97.59,388.61s-34.23-32.9-43-32.87c0,0,28.23,1.29,43.79,31.12Z"
     transform="translate(-54.62 -52.46)"
     fill="#3273dc"
     id="path131" />
  <path
     d="M124,470.72l-1.25.16c-6.43-50.35-15.81-80.1-26.41-83.78l.42-1.19C108,389.81,117.38,419.14,124,470.72Z"
     transform="translate(-54.62 -52.46)"
     fill="#444053"
     id="path133" />
  <path
     d="M133.42,591.1l-1.88.16c-.4-4.7-.7-9.51-.91-14.3-1.79-41.68-4.58-79.94-8.24-108.63l1.09-1.34c3.67,28.73,7.24,68.16,9,109.88C132.73,581.64,133,586.42,133.42,591.1Z"
     transform="translate(-54.62 -52.46)"
     fill="#444053"
     id="path135" />
  <path
     d="M277.68,819c-.33-.15-33.49-14.95-67.92-50.28a273.54,273.54,0,0,1-49.65-70.34C144.2,666,134.5,626.19,131.25,587.5l2,.92c7.31,86.84,46.84,146.21,78.28,178.5,34.09,35,66.88,49.67,67.21,49.81Z"
     transform="translate(-54.62 -52.46)"
     fill="#444053"
     id="path137" />
  <path
     d="M1055.26,185.73V790.57c0,18-17.35,32.61-38.78,32.61H195.85c-21.42,0-38.77-14.63-38.77-32.61V185.73c0-18,17.35-36.39,38.77-36.39l820.59,2C1037.86,151.33,1055.26,167.71,1055.26,185.73Z"
     id="path139"
     fill="#e8eaf2"
     transform="translate(-54.62 -52.46)" />
  <path
     d="M1055.26,185.91v28H157.08v-28a36.57,36.57,0,0,1,36.57-36.57h825A36.58,36.58,0,0,1,1055.26,185.91Z"
     transform="translate(-54.62 -52.46)"
     fill="#65617d"
     id="path141" />
  <circle
     cx="145.97"
     cy="129.16"
     r="12.92"
     fill="#fa5959"
     opacity="0.8"
     id="circle143" />
  <circle
     cx="183.58"
     cy="129.16"
     r="12.92"
     fill="#fed253"
     opacity="0.8"
     id="circle145" />
  <circle
     cx="221.18"
     cy="129.16"
     r="12.92"
     fill="#8ccf4d"
     opacity="0.8"
     id="circle147" />
  <path
     d="M1035.31,810.63,1013.48,779s-.41-7.83-1.84-9.66-.3-5.91-.3-5.91,1.53-2.24.2-2.44-.2-5.19-.2-5.19l-.11-7.94s1.23-7.63.21-9.46a3,3,0,0,1,.1-3.25s1.22-4.38,0-5.5-.92-7.94-.61-13.33-2.14-8.44-2.14-9.26-8.06-8.75-8.06-9.46-5.1-3.67-8.16-4.48-4.59-1.42-4.49-1.83-4.79-2-4.79-2-4.29-.3-5.92-2.44-6.62-2.75-6.76-2.77-.07-.29-.1-.43l-.09-.46c.38-.64.74-1.31,1.06-2l.29-.62a8.7,8.7,0,0,0,5-1.56,6.87,6.87,0,0,0,2.44-4.88,10.67,10.67,0,0,0-1.19-5.42c-.9-1.84-2.21-3.73-1.76-5.72.2-.86.71-1.61,1-2.45a6.5,6.5,0,0,0-.73-4.82c-.78-1.48-1.85-2.78-2.71-4.21a16.52,16.52,0,0,1-2.16-6,9.29,9.29,0,0,0-.79-3.24,6.17,6.17,0,0,0-1.79-1.81,17.85,17.85,0,0,0-11-3.32c-2.78.09-5.55.84-8.31.5a29.23,29.23,0,0,1-4.84-1.27c-3.42-1-7.37-1.43-10.35.53s-4.16,5.81-6.18,8.82c-1.79,2.67-4.4,4.9-5.76,7.72,0-.05,0-.11,0-.16a9.57,9.57,0,0,0-.76,2.06,14.71,14.71,0,0,0,.45,6.74,4.74,4.74,0,0,0,1.65,3c1,.64,2.39.49,3.57.7,0,.19-.1.38-.14.58a23.28,23.28,0,0,0,16.17,27.17c0,.21,0,.42,0,.62a14,14,0,0,1-.11,1.75h0s-10.25-2.11-13-.68-8.16,2.54-9,3.36-2.86.2-4.7,5-2,9.67-4.38,11.91-3.57,3.76-3.67,5.39.3,2-.62,2.54-2.24,2.65-1.83,3.46a2.91,2.91,0,0,1-1.12,3.06,3.37,3.37,0,0,0-1.43,3s-.61,2.24-2,2.75-2.35,3.86-2.35,3.86l-4.62,5.32-9.17-10.14a3.88,3.88,0,0,0-5.46-.28l-4.5,4a8.92,8.92,0,0,0-4.5,2.68,11.8,11.8,0,0,0-2.34,3.47l-2.46,2.22a6.26,6.26,0,0,0-.63,6.92l5.87,6.49,0,.06A10.37,10.37,0,0,0,866,762.7c-8.77,7.73-8.88,14.86-7.55,18.11s12.44,15.78,12.44,15.78,6.46,8.39,15.78,12.86h0l-.07.07c-.18.2-.37.41-.55.64l-.15.19a2.43,2.43,0,0,1-.14.2l-.16.24-.13.2-.18.3-.11.19-.21.4s-.05.08-.07.13-.17.36-.25.55a1.8,1.8,0,0,0-.08.21c-.06.13-.11.27-.16.4l-.09.27c0,.13-.09.26-.13.39l-.09.29-.12.45c0,.09-.05.18-.08.27s-.11.48-.16.73a2.5,2.5,0,0,1-.05.29l-.09.53c0,.12,0,.24-.05.37l-.06.5c0,.13,0,.26,0,.39s0,.38,0,.58l0,.36c0,.32,0,.64,0,1-.21,11.91.49,13.64.49,13.64a6.6,6.6,0,0,0,5.41,4.06,7.07,7.07,0,0,0,1.75-.09c5.3-.92,17.74-3.06,22.13-2.24,2.64.49,7.52-.24,11-.89l.92-.18.64,2,2-.55,1.72,1c.45.27.82.48,1.08.62,2,6.83,10.18,4.5,10.18,4.5l1.94,1.12,19.68.51a39.93,39.93,0,0,0,7,3.34,6.44,6.44,0,0,0,1,.22,46.07,46.07,0,0,0,5.49.1c1.51,0,2.67-.1,2.67-.1s-.2-5.35-.48-11.33a160.37,160.37,0,0,0,18.23-1.49c10.51-1.85,14.9-11.41,16.51-16.52a47.54,47.54,0,0,1,1,6.34,47.23,47.23,0,0,0,1.63,5.5,18.57,18.57,0,0,0,2.25,4.07c7.75-2.65,3.06-6.62,1.43-8.35s1.12-3.15,1.12-3.15,2.14-1.43,1.94-2.75-.31-2.75,6.63-2.64S1035.31,810.63,1035.31,810.63Zm-107.71-65c.09.59,1.06,6.85,1.93,8.5a10.86,10.86,0,0,1,.23,3.36c-4.11-.33-8.39-.51-8.39-.51a1,1,0,0,1,.22.53l-.64-.15-.94-.23,7.57-11.51Zm-15,23.87,7.12,1.12.59.1a25.2,25.2,0,0,0-.37,3.36c0,.1.17.23.39.38a9,9,0,0,0-.13,1.68c.11.56,3.44,1.78,7.25,2.79-.05.21-.1.4-.16.58h0c-3.37-1.77-8.67-2.6-9.28-3.91S899.34,768,899.34,768s-.66-.35-1.8-.9l4.76.9,1.3-.13A70.63,70.63,0,0,0,912.6,769.52Z"
     transform="translate(-54.62 -52.46)"
     fill="url(#b2e9a30e-d699-40a8-8c6a-b63a5f54a941)"
     id="path149" />
  <path
     d="M1012.09,815.05s-2.83,17.09-17.19,19.61-62.27,2-62.27,2-27.39-4-37.3-27.1-16.27-32.34-7.78-32.75,54.28,15.47,56.91,15.67S1014.62,757.33,1012.09,815.05Z"
     transform="translate(-54.62 -52.46)"
     fill="#65617d"
     id="path151" />
  <path
     d="M1012.09,815.05s-2.83,17.09-17.19,19.61-62.27,2-62.27,2-27.39-4-37.3-27.1-16.27-32.34-7.78-32.75,54.28,15.47,56.91,15.67S1014.62,757.33,1012.09,815.05Z"
     transform="translate(-54.62 -52.46)"
     opacity="0.05"
     id="path153" />
  <path
     d="M883.59,834.06a6.55,6.55,0,0,0,5.36,4,6.91,6.91,0,0,0,1.73-.09c5.26-.91,17.59-3,21.94-2.22,2.61.48,7.45-.24,10.89-.89,2.29-.43,4-.83,4-.83s-4.05-13.45-4.55-13.85-18.2-11-18.2-11l-14-1h0a7.42,7.42,0,0,0-4.75,2.79c-1.48,1.79-2.75,4.73-2.83,9.54C882.9,832.34,883.59,834.06,883.59,834.06Z"
     transform="translate(-54.62 -52.46)"
     fill="#3f3d56"
     id="path155" />
  <path
     d="M883.59,834.06a6.55,6.55,0,0,0,5.36,4,56.39,56.39,0,0,1-3.8-5.55l.07-9.8a17.28,17.28,0,0,1,5.5-14.56h0s-7.38.5-7.58,12.33S883.59,834.06,883.59,834.06Z"
     transform="translate(-54.62 -52.46)"
     opacity="0.05"
     id="path157" />
  <path
     d="M944.36,812.63l13-10.21,20.52-20.22s-2.21-.11-5.56-.25c-.83.53-3.16,2.2-3.25,4.22-.1,2.47-5.54.17-8.37,1.59s-16.68,19.14-19.11,19-4.35-1.23-5.36.49l-.07.11Z"
     transform="translate(-54.62 -52.46)"
     opacity="0.1"
     id="path159" />
  <path
     d="M885.93,811l1.42.65c9.9,4.24,22.13,13.14,23,14.76.56,1,7.65,5.28,13.12,8.51,2.29-.43,4-.83,4-.83s-4.05-13.45-4.55-13.85-18.2-11-18.2-11l-14-1h0A7.42,7.42,0,0,0,885.93,811Z"
     transform="translate(-54.62 -52.46)"
     opacity="0.1"
     id="path161" />
  <path
     d="M858.43,782c1.32,3.23,12.34,15.67,12.34,15.67s7,9.09,16.88,13.34,22.14,13.14,23.05,14.76c.58,1,8.48,5.79,14,9.06l1.25.73,2.76,1.6,1.46.84,6.75-5.45c3.33-2.7,6.64-5.42,6.69-5.57.1-.3,1.42-3.74,1.11-3.94-.15-.11-.85-1.5-2.13-3.13a14.19,14.19,0,0,0-5.15-4.25,14.67,14.67,0,0,1-6.67-7s-.44-.32-1.11-.74a13.39,13.39,0,0,0-4.55-2c-2.22-.28-6.36-4.83-6.36-4.83a12.45,12.45,0,0,1-3.95-4.14c-1.06-2.22-16.74-13-18.19-14l38,24.41,9.09,5.84,13-10.21,20.53-20.21s-2.76-.14-6.78-.31c-10-.43-27.68-1.11-29.92-.6a17.19,17.19,0,0,1-5.56.36s-5,.23-8.39-1.54-8.59-2.58-9.2-3.89-18.5-7.57-18.5-7.57-24.36-12.94-33.06-5.26S857.12,778.76,858.43,782Z"
     transform="translate(-54.62 -52.46)"
     fill="#65617d"
     id="path163" />
  <path
     d="M937,707.8l3.13,10.41,4,23.45,14.86,1,4.3-7.13,4.29-7.12s2.68-9.48,4.6-18.64c1.7-8.12,2.81-16,1-16.84-1.64-.76-2.72-3.49-3.42-6.43-.09-.36-.17-.73-.24-1.1a56.73,56.73,0,0,1-1-7.54s-31.14-1.61-26.79,11.23a20.31,20.31,0,0,1,1.17,6.82,16.14,16.14,0,0,1-.1,1.74A14.56,14.56,0,0,1,937,707.8Z"
     transform="translate(-54.62 -52.46)"
     fill="#ee8e9e"
     id="path165" />
  <path
     d="M930.51,706.08l1.11,17.69,2.53,15.06,2.83,7L939.51,784s24.37,2.82,30.3-.05a2.64,2.64,0,0,0,1.07-.84C978,772.27,975.7,741,975.7,741l2.73-20.21-1.82-10.5-4.4-.46-3.39-.37s-.76.94-1.86,2.4c-3,4-8.51,11.74-8.14,15,.5,4.45-.61,9-2.33,9.71s-3.13,1.92-3.44.7a5.51,5.51,0,0,1-.3-3.23c.3-1.72-1.31-7-1.31-7s-2.73-6.16-2.53-8.79-.3-5.66-1.11-6.37-1.92-1.42-1-4.65-4-9.53-4-9.53Z"
     transform="translate(-54.62 -52.46)"
     fill="#e3e8f4"
     id="path167" />
  <path
     d="M962.71,750.26l1,30.23,5.84,3.23a2.54,2.54,0,0,0,1.07-.83c7.16-10.82,4.81-42.13,4.81-42.13l2.73-20.22-1.82-10.49-4.39-.47c1.7-8.11,2.81-16,1-16.84-1.64-.76-2.72-3.49-3.42-6.42h0l-3.15,21.38s.26,1.93.35,3.92a11,11,0,0,1-.25,3.76c-.71,1.82-.2,5.06-.2,5.06-1.83,3.21-2.74,9.16-3.18,14.9C962.48,743,962.71,750.26,962.71,750.26Z"
     transform="translate(-54.62 -52.46)"
     opacity="0.1"
     id="path169" />
  <path
     d="M969.59,685.83s5.1.64,6.71,2.76,5.87,2.43,5.87,2.43,4.85,1.61,4.75,2,1.41,1,4.45,1.82,8.08,3.74,8.08,4.45,8,8.59,8,9.4,2.43,3.84,2.12,9.2-.6,12.13.61,13.24,0,5.46,0,5.46a3,3,0,0,0-.1,3.23c1,1.82-.2,9.4-.2,9.4l.1,7.89s-1.11,5,.2,5.15-.2,2.43-.2,2.43-1.11,4,.3,5.86,1.82,9.61,1.82,9.61l21.63,31.44s.31,5.76-6.57,5.66-6.77,1.31-6.57,2.63-1.92,2.72-1.92,2.72-2.73,1.42-1.11,3.14,6.27,5.66-1.42,8.29a18.58,18.58,0,0,1-2.22-4,45.59,45.59,0,0,1-1.62-5.45s-.71-7.69-2.12-8.7S1009,810,1009,810s2-3.94-.81-5.56-43.88-24.36-43.88-24.36l-1-30.23s-.7-22.34,3.54-29.82c0,0-.5-3.24.2-5.06s-.1-7.68-.1-7.68Z"
     transform="translate(-54.62 -52.46)"
     fill="#3f3d56"
     id="path171" />
  <path
     d="M943.1,698s-10.16-2.09-12.89-.68-8.09,2.53-8.9,3.34-2.83.2-4.65,5-2,9.61-4.35,11.83-3.53,3.74-3.63,5.36.3,2-.61,2.53-2.23,2.62-1.82,3.43,21,18.6,21,18.6,1,6.78,1.92,8.49-1,25.38-3,27,13.65,1.46,13.65,1.46.71-15.52,1.32-16.32-.41-17.39-.41-17.39-.1-14.15,1.21-17.9,1.17-16.17,1.17-16.17,1.16-7.46,2.57-9.2S943.1,698,943.1,698Z"
     transform="translate(-54.62 -52.46)"
     opacity="0.1"
     id="path173" />
  <path
     d="M942.8,697.66s-10.17-2.1-12.9-.68-8.08,2.53-8.89,3.34-2.83.2-4.65,4.95-2,9.6-4.35,11.83-3.54,3.74-3.64,5.35.31,2-.6,2.53-2.23,2.63-1.82,3.44S927,747,927,747s1,6.77,1.92,8.49-1,25.37-3,27S939.51,784,939.51,784s.71-15.52,1.31-16.33-.4-17.39-.4-17.39-.1-14.15,1.21-17.89,1.17-16.17,1.17-16.17,1.16-7.46,2.57-9.2S942.8,697.66,942.8,697.66Z"
     transform="translate(-54.62 -52.46)"
     fill="#3f3d56"
     id="path175" />
  <path
     d="M941.73,689.1a20.31,20.31,0,0,1,1.17,6.82,23.18,23.18,0,0,0,26.61-10.51,56.73,56.73,0,0,1-1-7.54S937.38,676.26,941.73,689.1Z"
     transform="translate(-54.62 -52.46)"
     opacity="0.1"
     id="path177" />
  <path
     d="M926.37,673.12a23.12,23.12,0,1,0,.5-4.81A23.14,23.14,0,0,0,926.37,673.12Z"
     transform="translate(-54.62 -52.46)"
     fill="#ee8e9e"
     id="path179" />
  <path
     d="M911.51,726.7,906,728.42a2.88,2.88,0,0,1-1.12,3,3.39,3.39,0,0,0-1.41,3s-.61,2.23-2,2.73-2.33,3.85-2.33,3.85l-4.65,5.35s-1.72,1.42-1.41,2.13-1.82.91-1.82.91l1.11,18,9.6,1.82,6-.61,4.85-1.82,4.24-2.52,1.93-5,8.49-12.94Z"
     transform="translate(-54.62 -52.46)"
     fill="#3f3d56"
     id="path181" />
  <path
     d="M892.6,750.86s-12.33-17.79-21.53-8.19,3.74,25.17,6.77,24.67S895.33,766,895.33,766Z"
     transform="translate(-54.62 -52.46)"
     fill="#ee8e9e"
     id="path183" />
  <rect
     x="850.79"
     y="726.52"
     width="64.55"
     height="50.12"
     rx="1.54"
     transform="translate(383.51 -371.73) rotate(27.04)"
     fill="#3f3d56"
     id="rect185" />
  <rect
     x="856.02"
     y="731.07"
     width="54.26"
     height="40.89"
     transform="translate(383.49 -371.77) rotate(27.04)"
     fill="#3273dc"
     id="rect187" />
  <circle
     cx="802.48"
     cy="685.76"
     r="0.89"
     fill="#e6e8ec"
     id="circle189" />
  <circle
     cx="854.79"
     cy="712.56"
     r="1.47"
     fill="#e6e8ec"
     id="circle191" />
  <path
     d="M884.62,754.6c-.1,13.35,27.49,16.17,27.49,16.17l7,1.12,3.16.5,1.32-13s-1.45-.21-3.26-.63c-2.67-.63-6.13-1.7-6.85-3.21C912.31,753,884.72,741.26,884.62,754.6Z"
     transform="translate(-54.62 -52.46)"
     fill="#ee8e9e"
     id="path193" />
  <path
     d="M926.87,668.31a2.7,2.7,0,0,1,1.69.76c.79.83.83,2.29,1.84,2.8a2,2,0,0,0,1.21.14c2.69-.38,4.24-3.41,6.82-4.25a7,7,0,0,1,4.53.39,3.35,3.35,0,0,1,1.49,1c.87,1.12.26,2.77.66,4.12.56,1.88,2.8,2.62,4.74,2.87s4.13.38,5.42,1.84a4.94,4.94,0,0,1,1,3.92,3.05,3.05,0,0,0,0,1.44c.54,1.52,3.16,1.29,3.85.1.5-.87.34-1.6,1.52-1.84a5.06,5.06,0,0,1,2.48.43,18.08,18.08,0,0,0,6.4,1,23.15,23.15,0,1,0-43.6-14.66Z"
     transform="translate(-54.62 -52.46)"
     opacity="0.1"
     id="path195" />
  <path
     d="M956.22,682.7a3.09,3.09,0,0,1,0-1.45,4.93,4.93,0,0,0-1-3.91c-1.29-1.47-3.48-1.61-5.42-1.85s-4.18-1-4.74-2.87c-.4-1.35.21-3-.66-4.11a3.19,3.19,0,0,0-1.49-1,6.83,6.83,0,0,0-4.53-.39c-2.58.83-4.13,3.87-6.82,4.25a2.17,2.17,0,0,1-1.21-.14c-1-.51-1.06-2-1.84-2.81-1.22-1.3-3.55-.46-5.06-1.42a4.68,4.68,0,0,1-1.63-3,14.67,14.67,0,0,1-.45-6.7c.88-3.76,4.24-6.34,6.39-9.55,2-3,3.12-6.78,6.13-8.76s6.86-1.53,10.25-.53a30,30,0,0,0,4.8,1.26c2.74.34,5.48-.41,8.23-.5a17.7,17.7,0,0,1,10.87,3.3,6.07,6.07,0,0,1,1.77,1.8,9.18,9.18,0,0,1,.79,3.21,16.44,16.44,0,0,0,2.13,5.92c.85,1.42,1.92,2.71,2.69,4.18a6.47,6.47,0,0,1,.72,4.79c-.26.83-.77,1.58-1,2.43-.45,2,.85,3.86,1.74,5.68a10.81,10.81,0,0,1,1.18,5.39,6.79,6.79,0,0,1-2.43,4.85,8.67,8.67,0,0,1-5.12,1.55,18.12,18.12,0,0,1-6.53-1,5.16,5.16,0,0,0-2.47-.43c-1.18.25-1,1-1.53,1.84C959.38,684,956.76,684.21,956.22,682.7Z"
     transform="translate(-54.62 -52.46)"
     fill="#3f3d56"
     id="path197" />
  <path
     d="M943.75,813.23l13-10.21,20.53-20.21s-2.76-.14-6.78-.31a4.48,4.48,0,0,0-1.43,2.76c-.1,2.47-5.54.17-8.37,1.59s-16.68,19.14-19.11,19-4.35-1.23-5.36.49l-.07.11a2.9,2.9,0,0,1-1.54.92Z"
     transform="translate(-54.62 -52.46)"
     opacity="0.1"
     id="path199" />
  <path
     d="M917.47,812.53,924,833.44l1,3.29,3.12-.86,6.88-1.89,30.64-8.41a26.63,26.63,0,0,0,11-3,33.42,33.42,0,0,1,19-4.15c4,.38,8.55-1.37,12.29-8.27,0,0,8.49-25.07-12.94-32.25s-22.46,3.82-22.46,3.82l-.29.18c-.83.53-3.16,2.2-3.25,4.22-.1,2.47-5.54.17-8.37,1.59s-16.68,19.14-19.11,19-4.35-1.23-5.36.49l-.07.11c-.75,1-3,1.27-4.49,1.32-.81,0-1.4,0-1.4,0l-.19.06-1.56.46Z"
     transform="translate(-54.62 -52.46)"
     fill="#65617d"
     id="path201" />
  <path
     d="M919.16,771.89l3.16.5,1.32-13s-1.45-.21-3.26-.63C920.86,760.54,919.78,767.57,919.16,771.89Z"
     transform="translate(-54.62 -52.46)"
     opacity="0.1"
     id="path203" />
  <path
     d="M1001.83,711s9.4-2.73,7.07,24-19.71,43.57-19.71,43.57-20,8.79-29,7.38-15.57-1.72-15.57-1.72a22.82,22.82,0,0,0-9.1-2.43c-5-.2-15.67-3.33-15.87-4.35s2.63-15.87,1.41-17c0,0,14.16.58,15.57,1.61s3.44.29,5,0,6.16-4.34,15.36-.8c0,0,3.14.3,4.35-.5a4.35,4.35,0,0,1,3.16-.21,8.81,8.81,0,0,0,2.2-1.11c.3-.4,2.73,0,2.73,0a1.07,1.07,0,0,0,1.51-.71,6.68,6.68,0,0,1,1.42-2.22s2.73-15.37,7.88-21.13a3.27,3.27,0,0,0,1.11-2.93C980.9,730.77,989.69,707.72,1001.83,711Z"
     transform="translate(-54.62 -52.46)"
     opacity="0.1"
     id="path205" />
  <path
     d="M1001.58,708.91s9.4-2.73,7.07,24-19.71,43.57-19.71,43.57-20,8.79-29,7.38-15.57-1.72-15.57-1.72a22.76,22.76,0,0,0-9.1-2.43c-5-.2-15.67-3.33-15.87-4.35s2.63-15.87,1.42-17c0,0,14.15.58,15.56,1.61s3.44.29,5,0,6.16-4.34,15.36-.8c0,0,3.14.3,4.35-.51a4.38,4.38,0,0,1,3.16-.2,8.81,8.81,0,0,0,2.2-1.11c.3-.4,2.73,0,2.73,0a1.07,1.07,0,0,0,1.51-.71,6.68,6.68,0,0,1,1.42-2.22s2.73-15.37,7.88-21.13a3.29,3.29,0,0,0,1.12-2.93C980.65,728.72,989.45,705.67,1001.58,708.91Z"
     transform="translate(-54.62 -52.46)"
     fill="#3f3d56"
     id="path207" />
  <path
     d="M928.56,809.2l13.36,16.16.08-.09c.1-.31,1.41-3.75,1.11-3.95s-2.63-5.26-7.28-7.38a13.72,13.72,0,0,1-5.71-5.2Z"
     transform="translate(-54.62 -52.46)"
     opacity="0.1"
     id="path209" />
  <path
     d="M928.75,837.16l1.46.84,6.75-5.45c3.33-2.7,6.64-5.42,6.69-5.57.1-.3,1.42-3.74,1.11-3.94-.15-.11-.85-1.5-2.13-3.13-9-2.53-3.28,3.75-2.52,4,0,0-11-2.53-11.62,9.47A14.24,14.24,0,0,0,928.75,837.16Z"
     transform="translate(-54.62 -52.46)"
     opacity="0.1"
     id="path211" />
  <path
     d="M939.91,842.25l1.92,1.11,19.51.5a39.53,39.53,0,0,0,6.91,3.33,6,6,0,0,0,1,.21,43.24,43.24,0,0,0,5.44.1c1.49,0,2.65-.1,2.65-.1s-.93-24.6-1.62-27.19c-.34-1.24-2-1-3.58-.35a23.87,23.87,0,0,0-3.5,1.77s-8.29.8-9.6,1.52-5.06-.41-7.38,0-6.47-2.74-6.47-2.74c-11.32-3.74-5,3.24-4.15,3.54,0,0-11-2.53-11.62,9.47S939.91,842.25,939.91,842.25Z"
     transform="translate(-54.62 -52.46)"
     fill="#3f3d56"
     id="path213" />
  <path
     d="M968.11,832.74c.22,5.1,4.19,11.42,6.56,14.76,1.49,0,2.65-.1,2.65-.1s-.93-24.6-1.62-27.19c-.34-1.24-2-1-3.58-.35C970.16,823.53,968,828.64,968.11,832.74Z"
     transform="translate(-54.62 -52.46)"
     fill="#565387"
     id="path215" />
  <path
     d="M968.11,832.74c.22,5.1,4.19,11.42,6.56,14.76,1.49,0,2.65-.1,2.65-.1s-.93-24.6-1.62-27.19c-.34-1.24-2-1-3.58-.35C970.16,823.53,968,828.64,968.11,832.74Z"
     transform="translate(-54.62 -52.46)"
     opacity="0.1"
     id="path217" />
  <path
     d="M964.78,833.42c1.34,4.92,1.33,10.43,3.47,13.77a6,6,0,0,0,1,.21,43.24,43.24,0,0,0,5.44.1c1.49,0,2.65-.1,2.65-.1s-.93-24.6-1.62-27.19c-.34-1.24-2-1-3.58-.35a23.87,23.87,0,0,0-3.5,1.77S963.06,827.12,964.78,833.42Z"
     transform="translate(-54.62 -52.46)"
     opacity="0.05"
     id="path219" />
  <path
     d="M897.47,783.54s9.69,3.15,17.9,14.33Z"
     transform="translate(-54.62 -52.46)"
     opacity="0.1"
     id="path221" />
  <g
     opacity="0.1"
     id="g227">
    <path
       d="M976.22,662.24l-.06.22a6.71,6.71,0,0,1-.34.84A6.78,6.78,0,0,1,976.22,662.24Z"
       transform="translate(-54.62 -52.46)"
       id="path223" />
    <path
       d="M921.39,657.34a9.38,9.38,0,0,1,.75-2c0,.17-.1.34-.14.52a14.45,14.45,0,0,0,.45,6.71,4.64,4.64,0,0,0,1.63,3c1.5,1,3.83.13,5.06,1.43.78.82.82,2.29,1.84,2.8a2.08,2.08,0,0,0,1.21.14c2.68-.38,4.24-3.42,6.82-4.25a6.8,6.8,0,0,1,4.52.39,3.44,3.44,0,0,1,1.5,1c.86,1.12.26,2.76.66,4.12.55,1.87,2.79,2.62,4.73,2.86s4.13.39,5.43,1.85a5,5,0,0,1,1,3.91,3,3,0,0,0,0,1.45c.53,1.52,3.15,1.29,3.84.09.5-.87.35-1.59,1.53-1.83a4.91,4.91,0,0,1,2.47.43,18.37,18.37,0,0,0,6.53,1,8.78,8.78,0,0,0,5.13-1.56,5.81,5.81,0,0,0,1.57-1.91,6.43,6.43,0,0,1-2.18,3.43,8.69,8.69,0,0,1-5.12,1.55,18.12,18.12,0,0,1-6.53-1,5.18,5.18,0,0,0-2.48-.43c-1.18.25-1,1-1.53,1.84-.68,1.2-3.3,1.42-3.84-.09a3.23,3.23,0,0,1,0-1.45,4.89,4.89,0,0,0-1-3.91c-1.29-1.47-3.48-1.61-5.42-1.85s-4.18-1-4.74-2.87c-.4-1.35.21-3-.66-4.11a3.24,3.24,0,0,0-1.49-1,6.83,6.83,0,0,0-4.53-.39c-2.58.83-4.14,3.87-6.82,4.25a2.17,2.17,0,0,1-1.21-.14c-1-.51-1.06-2-1.84-2.81-1.23-1.3-3.55-.46-5.06-1.42a4.64,4.64,0,0,1-1.63-3A14.53,14.53,0,0,1,921.39,657.34Z"
       transform="translate(-54.62 -52.46)"
       id="path225" />
  </g>
  <path
     d="M977.79,738.25c-1.86,2.5-4,4.81-5.61,7.46a14.16,14.16,0,0,0-2.46,8.82c1.7-1.74,2.48-4.14,3.55-6.32,1.81-3.7,4.51-6.83,6.8-10.23.43-.65,3.22-4.4,1.81-4.57C980.71,733.26,978.42,737.4,977.79,738.25Z"
     transform="translate(-54.62 -52.46)"
     opacity="0.1"
     id="path229" />
  <g
     id="g1410"
     transform="matrix(1.0163113,0,0,1.0163113,-1004.3941,-206.75831)">
    <g
       id="g1436"
       transform="matrix(0.51064931,0,0,0.51064931,1473.5041,430.32068)">
      <path
         style="fill:#f2f2f2"
         inkscape:connector-curvature="0"
         d="m 321.94148,651.875 c 0,0 332.5,-277.5 524,0"
         transform="translate(-153.44148,-81.375)"
         id="path1250" />
      <rect
         style="fill:#3273dc"
         x="159"
         y="413"
         width="60"
         height="158"
         rx="11.85052"
         id="rect1278" />
      <rect
         style="fill:#3273dc"
         x="273"
         y="318"
         width="60"
         height="253"
         rx="11.85052"
         id="rect1280" />
      <rect
         style="fill:#3273dc"
         x="387"
         y="252"
         width="60"
         height="319"
         rx="11.85052"
         id="rect1282" />
      <rect
         style="fill:#3273dc"
         x="501"
         y="189"
         width="60"
         height="382"
         rx="11.85052"
         id="rect1284" />
      <rect
         style="fill:#3273dc"
         x="615"
         y="79"
         width="60"
         height="492"
         rx="11.85052"
         id="rect1286" />
      <rect
         style="fill:none;stroke:#3f3d56;stroke-miterlimit:10"
         x="167"
         y="405"
         width="60"
         height="158"
         rx="11.85052"
         stroke-miterlimit="10"
         id="rect1288" />
      <rect
         style="fill:none;stroke:#3f3d56;stroke-miterlimit:10"
         x="281"
         y="310"
         width="60"
         height="253"
         rx="11.85052"
         stroke-miterlimit="10"
         id="rect1290" />
      <rect
         style="fill:none;stroke:#3f3d56;stroke-miterlimit:10"
         x="395"
         y="244"
         width="60"
         height="319"
         rx="11.85052"
         stroke-miterlimit="10"
         id="rect1292" />
      <rect
         style="fill:none;stroke:#3f3d56;stroke-miterlimit:10"
         x="509"
         y="181"
         width="60"
         height="382"
         rx="11.85052"
         stroke-miterlimit="10"
         id="rect1294" />
      <rect
         style="fill:none;stroke:#3f3d56;stroke-miterlimit:10"
         x="623"
         y="71"
         width="60"
         height="492"
         rx="11.85052"
         stroke-miterlimit="10"
         id="rect1296" />
      <line
         style="fill:none;stroke:#3f3d56;stroke-miterlimit:10"
         x2="0"
         x1="861"
         y1="571.5"
         y2="571.5"
         stroke-miterlimit="10"
         id="line1298" />
      <path
         style="opacity:0.1"
         inkscape:connector-curvature="0"
         d="m 850.97247,481.95276 c 0,0 -4.11572,61.08273 -3.48205,75.80128 -3.38785,-0.97245 -5.49594,-2.108 -5.29514,-3.3126 0.62739,-3.76434 7.52869,-75.28681 7.52869,-82.1881 0,-6.90129 2.50956,-40.153 2.50956,-40.153 l -18.03119,-35.4789 c 0.28858,-1.75673 0.46426,-2.7919 0.46426,-2.7919 l 9.09716,19.1354 12.8615,3.45065 z"
         transform="translate(-153.44148,-81.375)"
         id="path1320" />
      <polyline
         style="fill:none;stroke:#3f3d56;stroke-miterlimit:10"
         points="196.5 344.5 310.5 249.5 425.5 184.5 539.5 121.5 653.5 11.5"
         stroke-miterlimit="10"
         id="polyline1330" />
      <circle
         style="fill:#f2f2f2"
         cx="193.5"
         cy="349.5"
         r="11"
         id="circle1332" />
      <circle
         style="fill:#f2f2f2"
         cx="307.5"
         cy="254.5"
         r="11"
         id="circle1334" />
      <circle
         style="fill:#f2f2f2"
         cx="422.5"
         cy="189.5"
         r="11"
         id="circle1336" />
      <circle
         style="fill:#f2f2f2"
         cx="536.5"
         cy="126.5"
         r="11"
         id="circle1338" />
      <circle
         style="fill:#f2f2f2"
         cx="650.5"
         cy="16.5"
         r="11"
         id="circle1340" />
      <circle
         style="fill:none;stroke:#3f3d56;stroke-miterlimit:10"
         cx="196.5"
         cy="344.5"
         r="11"
         stroke-miterlimit="10"
         id="circle1342" />
      <circle
         style="fill:none;stroke:#3f3d56;stroke-miterlimit:10"
         cx="310.5"
         cy="249.5"
         r="11"
         stroke-miterlimit="10"
         id="circle1344" />
      <circle
         style="fill:none;stroke:#3f3d56;stroke-miterlimit:10"
         cx="425.5"
         cy="184.5"
         r="11"
         stroke-miterlimit="10"
         id="circle1346" />
      <circle
         style="fill:none;stroke:#3f3d56;stroke-miterlimit:10"
         cx="539.5"
         cy="121.5"
         r="11"
         stroke-miterlimit="10"
         id="circle1348" />
      <circle
         style="fill:none;stroke:#3f3d56;stroke-miterlimit:10"
         cx="653.5"
         cy="11.5"
         r="11"
         stroke-miterlimit="10"
         id="circle1350" />
      <rect
         id="rect2105"
         rx="9.1307249"
         height="852.32843"
         width="46.229488"
         y="-232.31046"
         x="-21.721792"
         style="opacity:0.09;fill:#3273dc;stroke-width:1.15532684"
         transform="rotate(90)" />
      <rect
         transform="rotate(90)"
         style="opacity:0.08999999;fill:#3273dc;stroke-width:1.15532684"
         x="49.425858"
         y="-232.31046"
         width="46.229488"
         height="852.32843"
         rx="9.1307249"
         id="rect2107" />
      <rect
         transform="rotate(90)"
         style="opacity:0.08999999;fill:#8dd070;stroke-width:1.15532684;fill-opacity:1"
         x="122.86859"
         y="-232.31046"
         width="46.229488"
         height="852.32843"
         rx="9.1307249"
         id="rect2109" />
      <rect
         id="rect2111"
         rx="9.1307249"
         height="852.32843"
         width="46.229488"
         y="-232.31046"
         x="194.01625"
         style="opacity:0.08999999;fill:#3273dc;stroke-width:1.15532684"
         transform="rotate(90)" />
      <rect
         transform="rotate(90)"
         style="opacity:0.08999999;fill:#3273dc;stroke-width:1.15532684"
         x="265.16391"
         y="-232.31046"
         width="46.229488"
         height="852.32843"
         rx="9.1307249"
         id="rect2113" />
      <rect
         id="rect2115"
         rx="9.1307249"
         height="852.32843"
         width="46.229488"
         y="-232.31046"
         x="336.31155"
         style="opacity:0.08999999;fill:#8dd070;stroke-width:1.15532684;fill-opacity:1"
         transform="rotate(90)" />
      <rect
         id="rect2117"
         rx="9.1307249"
         height="852.32843"
         width="46.229488"
         y="-232.31046"
         x="409.75427"
         style="opacity:0.08999999;fill:#8dd070;stroke-width:1.15532684;fill-opacity:1"
         transform="rotate(90)" />
      <rect
         transform="rotate(90)"
         style="opacity:0.08999999;fill:#3273dc;stroke-width:1.15532684"
         x="480.90195"
         y="-232.31046"
         width="46.229488"
         height="852.32843"
         rx="9.1307249"
         id="rect2119" />
    </g>
  </g>
  <g
     id="g2077"
     transform="matrix(1.0795528,0,0,1.0795528,-1463.9938,538.53043)">
    <g
       id="g2103"
       transform="matrix(0.3416108,0,0,0.3416108,1504.282,-88.191075)">
      <path
         style="fill:#3273dc"
         inkscape:connector-curvature="0"
         d="m 504.61,545.46 c 6.63,0.85 13.51,1.39 19.86,-0.67 1,-0.31 2.1,-1 2,-2 a 2.42,2.42 0 0 0 -0.45,-1 61.78,61.78 0 0 1 -6,-11.43 1,1 0 0 0 -0.37,-0.52 0.94,0.94 0 0 0 -0.64,0 c -2.93,0.77 -5.46,2.66 -8.37,3.47 a 11.9,11.9 0 0 1 -4.56,0.34 c -1.32,-0.15 -3.12,-1.24 -4.32,-1.1 0.68,4.37 2.34,8.45 2.85,12.91 z"
         transform="translate(-84.46,-118.23)"
         id="path1735" />
      <path
         style="fill:#3273dc"
         inkscape:connector-curvature="0"
         d="m 630,534.39 c 4.37,-3 8.9,-6.15 11.48,-10.78 a 1.87,1.87 0 0 0 0.31,-0.93 1.92,1.92 0 0 0 -0.37,-0.9 37.16,37.16 0 0 0 -9.33,-10.07 27.21,27.21 0 0 0 -5.2,4.8 c -1.1,1.16 -4.14,3 -4.17,4.77 0,1 1.16,2.16 1.7,3 0.73,1.08 1.42,2.18 2.08,3.3 0.38,0.55 3.85,6.59 3.5,6.81 z"
         transform="translate(-84.46,-118.23)"
         id="path1737" />
      <path
         style="fill:#514e7f"
         inkscape:connector-curvature="0"
         d="m 530.6,558.85 a 4.45,4.45 0 0 1 -0.8,2.9 3.93,3.93 0 0 1 -1.68,1 c -9.27,3.32 -20,-0.82 -29.25,2.45 -1.9,0.67 -3.7,1.64 -5.61,2.28 a 30.52,30.52 0 0 1 -7,1.24 c -3.27,0.31 -6.56,0.51 -9.84,0.6 a 23.66,23.66 0 0 1 -7.42,-0.65 8.91,8.91 0 0 1 -5.69,-4.51 4.33,4.33 0 0 1 -0.28,-3.21 3.46,3.46 0 0 1 0.61,-1 8.77,8.77 0 0 1 2.18,-1.77 l 3.41,-2.2 a 22.89,22.89 0 0 1 5.17,-2.74 c 1.35,-0.44 2.78,-0.63 4.15,-1 4.79,-1.4 8.45,-5.2 11.85,-8.85 l 4.64,-4.95 a 4.67,4.67 0 0 1 1.61,-1.29 4.46,4.46 0 0 1 2,-0.19 26.74,26.74 0 0 1 12.65,4.24 16.39,16.39 0 0 0 3.12,1.84 c 2.72,1.06 6.21,0.26 8.72,-1.08 1.19,-0.64 0.93,-1 1.43,-2.14 0.5,-1.14 1.72,-1.87 2.78,-0.83 a 2.94,2.94 0 0 1 0.66,1.26 c 1,3.3 0.62,6.85 0.62,10.31 a 4.54,4.54 0 0 0 0.2,1.6 9.05,9.05 0 0 0 0.91,1.48 3.37,3.37 0 0 1 0.19,0.38 10.17,10.17 0 0 1 0.67,4.83 z"
         transform="translate(-84.46,-118.23)"
         id="path1739" />
      <path
         style="fill:#464353"
         inkscape:connector-curvature="0"
         d="m 530.6,558.85 a 4.45,4.45 0 0 1 -0.8,2.9 3.93,3.93 0 0 1 -1.68,1 c -9.27,3.32 -20,-0.82 -29.25,2.45 -1.9,0.67 -3.7,1.64 -5.61,2.28 a 30.52,30.52 0 0 1 -7,1.24 c -3.27,0.31 -6.56,0.51 -9.84,0.6 a 23.66,23.66 0 0 1 -7.42,-0.65 8.91,8.91 0 0 1 -5.69,-4.51 4.33,4.33 0 0 1 -0.28,-3.21 3.46,3.46 0 0 1 0.61,-1 c 0.54,1.13 0.93,2.63 1.27,3.17 a 6.49,6.49 0 0 0 4.34,3.13 10.78,10.78 0 0 0 4,-0.51 c 8.4,-2.08 17.33,-2.11 25.4,-5.26 2.77,-1.09 5.41,-2.54 8.32,-3.2 2.91,-0.66 6,-0.48 9,-0.73 4.74,-0.38 9.33,-1.81 14,-2.56 a 10.17,10.17 0 0 1 0.63,4.86 z"
         transform="translate(-84.46,-118.23)"
         id="path1741" />
      <path
         style="fill:#514e7f"
         inkscape:connector-curvature="0"
         d="m 651.23,533.78 c -0.44,3.52 -2.67,6.55 -5.12,9.12 -2.45,2.57 -5.22,4.88 -7.17,7.84 -2.4,3.67 -3.48,8.22 -6.6,11.32 a 18.1,18.1 0 0 1 -4,2.85 27.91,27.91 0 0 1 -5.15,2.37 c -4.66,1.49 -9.68,1.15 -14.55,0.79 a 13.09,13.09 0 0 1 -4.62,-0.89 13.92,13.92 0 0 1 -1.92,-1.18 9.17,9.17 0 0 1 -3,-3 3,3 0 0 1 -0.29,-2.18 5.12,5.12 0 0 1 1.39,-2.12 33,33 0 0 1 3.52,-3.17 21.07,21.07 0 0 0 4.58,-4 12.92,12.92 0 0 0 1.77,-4 35.48,35.48 0 0 0 1.29,-7.65 24.25,24.25 0 0 1 0.53,-5.12 c 0.74,-2.64 2.7,-5 2.48,-7.73 a 1.93,1.93 0 0 1 0.1,-1.17 1.63,1.63 0 0 1 0.92,-0.57 16.3,16.3 0 0 1 4.78,-1.11 5.57,5.57 0 0 1 4.44,1.74 c 0.68,0.82 1.13,2 2.13,2.32 a 3.38,3.38 0 0 0 1.52,0.06 c 2.46,-0.25 5.06,-0.56 7,-2.15 a 8.73,8.73 0 0 0 2.9,-6.37 c 0,-0.91 -0.41,-1.86 1,-2 1.06,-0.14 1.9,1 2.44,1.7 1.95,2.61 3.95,5.34 4.68,8.52 a 2.51,2.51 0 0 1 0.89,-0.17 3.87,3.87 0 0 1 3.19,1.63 6.35,6.35 0 0 1 0.87,4.32 z"
         transform="translate(-84.46,-118.23)"
         id="path1743" />
      <path
         style="fill:#464353"
         inkscape:connector-curvature="0"
         d="m 651.23,533.78 c -0.44,3.52 -2.67,6.55 -5.12,9.12 -2.45,2.57 -5.22,4.88 -7.17,7.84 -2.4,3.67 -3.48,8.22 -6.6,11.32 a 18.1,18.1 0 0 1 -4,2.85 27.91,27.91 0 0 1 -5.15,2.37 c -4.66,1.49 -9.68,1.15 -14.55,0.79 a 13.09,13.09 0 0 1 -4.62,-0.89 13.92,13.92 0 0 1 -1.92,-1.18 9.17,9.17 0 0 1 -3,-3 7.31,7.31 0 0 1 3,-0.72 c 2.16,0.12 3.74,2.16 5.81,2.79 2.95,0.89 5.89,-1.19 8.88,-1.9 1.95,-0.46 4,-0.34 5.93,-1 a 14.66,14.66 0 0 0 4.39,-2.66 22.35,22.35 0 0 0 4.69,-4.52 29.05,29.05 0 0 0 2.75,-5.49 78.5,78.5 0 0 1 5.56,-10.64 7.52,7.52 0 0 1 1.13,-1.48 c 0.47,-0.43 1,-0.73 1.53,-1.11 2,-1.51 2.83,-4 3.53,-6.44 a 11.27,11.27 0 0 1 0.79,-2.15 3.87,3.87 0 0 1 3.19,1.63 6.35,6.35 0 0 1 0.95,4.47 z"
         transform="translate(-84.46,-118.23)"
         id="path1745" />
      <path
         style="fill:#464353"
         inkscape:connector-curvature="0"
         d="M 556.62,320.79"
         transform="translate(-84.46,-118.23)"
         id="path1757" />
      <path
         style="fill:#464353"
         inkscape:connector-curvature="0"
         d="m 488.21,373.74 c 1.32,5 -0.59,10.26 -2.15,15.21 a 117.88,117.88 0 0 0 -4.78,22.9 19.82,19.82 0 0 1 -1.18,5.79 c -0.74,1.67 -2,3.08 -2.86,4.67 -2.36,4.18 -2.3,9.28 -1.79,14.06 0.34,3.15 0.85,6.29 1.48,9.39 0.77,3.79 1.72,7.75 0.61,11.45 1.86,-0.41 3.12,2 3,3.89 -0.12,1.89 -0.73,4 0.18,5.63 2.3,0.84 2.32,4 2.25,6.45 a 54.25,54.25 0 0 0 1.6,12.6 q 5.22,25.1 11.08,50.06 c 8.45,2.62 18.32,5.35 26.38,1.72 1.5,-0.67 3,-1.74 3.34,-3.36 a 5.86,5.86 0 0 0 -0.32,-2.58 l -3.82,-13.9 c -0.93,-3.36 -1.86,-6.83 -1.37,-10.28 0.37,-2.57 1.49,-5.34 0.23,-7.61 -0.43,-0.78 -1.11,-1.39 -1.61,-2.13 -2,-2.93 -0.95,-6.85 -0.79,-10.4 a 8.24,8.24 0 0 0 -0.16,-2.38 11.88,11.88 0 0 0 -1.14,-2.61 39.92,39.92 0 0 1 -4.4,-19.86 4.91,4.91 0 0 0 -0.35,-2.59 8.38,8.38 0 0 1 -0.65,-1.06 2.9,2.9 0 0 1 0.21,-1.91 17.5,17.5 0 0 1 -3.08,-3 4.31,4.31 0 0 0 0.74,-6.74 2.25,2.25 0 0 0 1.07,-3.87 c -0.49,-0.34 -1.14,-0.49 -1.49,-1 -0.54,-0.74 -0.1,-1.77 0.34,-2.56 l 2.33,-4.21 c 1.74,-3.13 2.13,-7 4,-10 2.68,-4.37 4.43,-9.24 6.16,-14.06 l 6.73,-18.57 4.53,3.93 a 14.32,14.32 0 0 1 3.72,4.24 18.3,18.3 0 0 1 1.21,5.08 c 1.66,10.08 8,18.82 10.35,28.75 0.52,2.21 0.87,4.53 2.14,6.42 a 14,14 0 0 1 1.22,1.84 9.76,9.76 0 0 1 0.51,3.05 14.23,14.23 0 0 0 6,10.2 c 2.23,1.53 5,2.58 6.21,5 a 9.32,9.32 0 0 0 1,2.13 c 1.08,1.3 3.41,1.45 3.87,3.08 0.26,0.91 -0.22,2 0.29,2.8 a 2.65,2.65 0 0 0 1.11,0.83 l 6.51,3.25 c 7.28,3.64 11,12 16.37,18.09 a 39,39 0 0 1 4.9,6.48 c 2.32,4.15 3.39,9.36 7.31,12 a 11.06,11.06 0 0 1 2.84,2.11 c 1.23,1.62 0.78,3.89 0.89,5.93 0.11,2.04 1.67,4.47 3.61,3.85 a 14.23,14.23 0 0 0 0,7.55 38,38 0 0 0 23.06,-9.34 c 1.9,-1.66 3.73,-3.78 3.75,-6.3 a 2.26,2.26 0 0 0 -0.28,-1.25 3.57,3.57 0 0 0 -1.47,-1.11 c -6.09,-3.3 -7.92,-10.95 -11,-17.16 -2.69,-5.48 -6.67,-10.2 -10,-15.29 -7.24,-10.95 -12.18,-24.2 -23.13,-31.43 -2.41,-1.59 -5.21,-3 -6.42,-5.63 -0.67,-1.47 -0.75,-3.15 -1.28,-4.67 -0.53,-1.52 -1.8,-3 -3.42,-3 0.9,-2.2 0.72,-4.88 0.78,-7.26 a 9.17,9.17 0 0 0 -0.36,-3.13 15.23,15.23 0 0 0 -1.61,-3.1 29.74,29.74 0 0 1 -4.12,-16 c 0.08,-2.89 0.59,-5.87 -0.28,-8.63 -0.44,-1.39 -1.21,-2.66 -1.74,-4 a 25,25 0 0 1 -1.25,-7.52 l -0.6,-9.61 a 47.28,47.28 0 0 0 -1.24,-9.5 c -2,-7.46 -4,-38.71 -10.85,-42.23 -6.85,-3.52 -18.62,20.53 -26.33,21 a 34.29,34.29 0 0 0 -10,1.93 c -5.13,1.92 -9.43,5.5 -13.62,9 L 497,367.17 c -3,2.47 -5.48,4.83 -8.79,6.57 z"
         transform="translate(-84.46,-118.23)"
         id="path1761" />
      <path
         style="fill:#33323d"
         inkscape:connector-curvature="0"
         d="M 711.91,399.81 V 387.39 A 34.48,34.48 0 0 0 677.43,352.92 H 186.94 a 34.48,34.48 0 0 0 -34.48,34.47 v 22.9 z"
         transform="translate(-84.46,-118.23)"
         id="path1771" />
      <path
         style="fill:#8dd070"
         inkscape:connector-curvature="0"
         d="m 323.39,338.36 c 0,0 -1.4,86.86 14,115.44 15.4,28.58 22,152.91 22,152.91 0,0 161.44,16.7 273.94,-20 C 745.83,550.01 985.21,535 985.21,535 L 944.87,263.11 c 0,0 -199.29,-12.78 -312.66,41.29 -113.37,54.07 -308.82,33.96 -308.82,33.96 z"
         transform="translate(-84.46,-118.23)"
         id="path1773" />
      <path
         style="opacity:0.1"
         inkscape:connector-curvature="0"
         d="m 323.39,338.36 c 0,0 -1.4,86.86 14,115.44 15.4,28.58 22,152.91 22,152.91 0,0 161.44,16.7 273.94,-20 C 745.83,550.01 985.21,535 985.21,535 L 944.87,263.11 c 0,0 -199.29,-12.78 -312.66,41.29 -113.37,54.07 -308.82,33.96 -308.82,33.96 z"
         transform="translate(-84.46,-118.23)"
         id="path1775" />
      <path
         style="fill:#8dd070"
         inkscape:connector-curvature="0"
         d="m 359.12,370.09 c 0,0 -5.05,71.67 7.62,94.57 12.67,22.9 13.26,125.13 13.26,125.13 0,0 145.29,6.74 248.64,-28.44 103.35,-35.18 320.53,-58 320.53,-58 L 924.49,281 c 0,0 -179.7,-1.85 -284.58,47.67 -104.88,49.52 -280.79,41.42 -280.79,41.42 z"
         transform="translate(-84.46,-118.23)"
         id="path1777" />
      <ellipse
         style="opacity:0.1"
         cx="628.34003"
         cy="440.31"
         rx="37.720001"
         ry="80.900002"
         transform="rotate(-7.1,-366.37479,1062.1282)"
         id="ellipse1779" />
      <path
         style="opacity:0.2"
         inkscape:connector-curvature="0"
         d="m 835.61,130.66 c 0,0 -193.61,49 -284.91,135.25 C 459.4,352.16 267.2,393 267.2,393 c 0,0 25.32,83.09 48.74,105.57 23.42,22.48 67.84,138.8 67.84,138.8 0,0 158.77,-33.66 254.57,-103.14 C 734.15,464.75 957.42,377 957.42,377 Z"
         transform="translate(-84.46,-118.23)"
         id="path1781" />
      <path
         style="fill:#8dd070"
         inkscape:connector-curvature="0"
         d="m 264.29,380.56 c 0,0 25.31,83.1 48.71,105.58 23.4,22.48 67.84,138.79 67.84,138.79 0,0 158.79,-33.65 254.6,-103.13 C 731.25,452.32 954.5,364.6 954.5,364.6 L 832.69,118.23 c 0,0 -193.6,49 -284.9,135.25 -91.3,86.25 -283.5,127.08 -283.5,127.08 z"
         transform="translate(-84.46,-118.23)"
         id="path1783" />
      <path
         style="opacity:0.1"
         inkscape:connector-curvature="0"
         d="m 264.29,380.56 c 0,0 25.31,83.1 48.71,105.58 23.4,22.48 67.84,138.79 67.84,138.79 0,0 158.79,-33.65 254.6,-103.13 C 731.25,452.32 954.5,364.6 954.5,364.6 L 832.69,118.23 c 0,0 -193.6,49 -284.9,135.25 -91.3,86.25 -283.5,127.08 -283.5,127.08 z"
         transform="translate(-84.46,-118.23)"
         id="path1785" />
      <path
         style="fill:#8dd070"
         inkscape:connector-curvature="0"
         d="m 308,399.8 c 0,0 17.19,69.77 36.28,87.67 19.09,17.9 51,115 51,115 0,0 140.34,-38.18 227.91,-103.38 87.57,-65.2 287.29,-153.47 287.29,-153.47 L 818.77,141.5 c 0,0 -171.59,53.37 -256.22,132.69 C 477.92,353.51 308,399.8 308,399.8 Z"
         transform="translate(-84.46,-118.23)"
         id="path1787" />
      <ellipse
         style="opacity:0.1"
         cx="585.81"
         cy="384.01001"
         rx="37.720001"
         ry="80.900002"
         transform="rotate(-24.97,276.73021,515.66868)"
         id="ellipse1789" />
      <path
         style="opacity:0.1"
         inkscape:connector-curvature="0"
         d="m 725.15,412 v 345 a 29.83,29.83 0 0 1 -29.84,29.83 h -513 A 29.83,29.83 0 0 1 152.49,757 V 377.22 c 14.7,5.46 14.7,5.46 29.82,5 h 513 A 29.84,29.84 0 0 1 725.15,412 Z"
         transform="translate(-84.46,-118.23)"
         id="path1791" />
      <path
         style="fill:#504f60"
         inkscape:connector-curvature="0"
         d="m 725.15,416.39 v 345 a 29.84,29.84 0 0 1 -29.84,29.83 h -513 A 29.83,29.83 0 0 1 152.49,761.39 V 381.6 c 14.7,5.45 14.7,5.45 29.82,5 h 513 a 29.84,29.84 0 0 1 29.84,29.79 z"
         transform="translate(-84.46,-118.23)"
         id="path1793" />
      <path
         style="opacity:0.1"
         inkscape:connector-curvature="0"
         d="m 723.69,543.94 v 110.33 h -107 a 55.17,55.17 0 0 1 0,-110.33 z"
         transform="translate(-84.46,-118.23)"
         id="path1795" />
      <path
         style="fill:#33323d"
         inkscape:connector-curvature="0"
         d="m 725.15,541 v 110.35 h -107 a 55.17,55.17 0 0 1 0,-110.33 z"
         transform="translate(-84.46,-118.23)"
         id="path1797" />
      <circle
         style="opacity:0.1"
         cx="538.82001"
         cy="480.88"
         r="21.51"
         id="circle1799" />
      <circle
         style="fill:#3273dc"
         cx="540.28003"
         cy="477.95999"
         r="21.51"
         id="circle1801" />
    </g>
  </g>
</svg>
